<mxfile host="app.diagrams.net" modified="2023-04-03T01:32:39.015Z" agent="Mozilla/5.0 (Windows NT 10.0; Win64; x64) AppleWebKit/537.36 (KHTML, like Gecko) Chrome/111.0.0.0 Safari/537.36" etag="Eni5T9WcBhFa9GjQDVpM" version="21.1.2" type="github">
  <diagram id="C5RBs43oDa-KdzZeNtuy" name="Page-1">
    <mxGraphModel dx="733" dy="1582" grid="1" gridSize="10" guides="1" tooltips="1" connect="1" arrows="1" fold="1" page="1" pageScale="1" pageWidth="827" pageHeight="1169" math="0" shadow="0">
      <root>
        <mxCell id="WIyWlLk6GJQsqaUBKTNV-0" />
        <mxCell id="WIyWlLk6GJQsqaUBKTNV-1" parent="WIyWlLk6GJQsqaUBKTNV-0" />
        <mxCell id="Xrtr9dNO0ONjn7wtkNqM-4" value="" style="edgeStyle=orthogonalEdgeStyle;rounded=0;orthogonalLoop=1;jettySize=auto;html=1;" edge="1" parent="WIyWlLk6GJQsqaUBKTNV-1" source="Xrtr9dNO0ONjn7wtkNqM-2" target="Xrtr9dNO0ONjn7wtkNqM-3">
          <mxGeometry relative="1" as="geometry" />
        </mxCell>
        <mxCell id="Xrtr9dNO0ONjn7wtkNqM-2" value="IN" style="rounded=0;whiteSpace=wrap;html=1;" vertex="1" parent="WIyWlLk6GJQsqaUBKTNV-1">
          <mxGeometry x="90" y="140" width="120" height="60" as="geometry" />
        </mxCell>
        <mxCell id="Xrtr9dNO0ONjn7wtkNqM-6" value="" style="edgeStyle=orthogonalEdgeStyle;rounded=0;orthogonalLoop=1;jettySize=auto;html=1;" edge="1" parent="WIyWlLk6GJQsqaUBKTNV-1" source="Xrtr9dNO0ONjn7wtkNqM-3" target="Xrtr9dNO0ONjn7wtkNqM-5">
          <mxGeometry relative="1" as="geometry" />
        </mxCell>
        <mxCell id="Xrtr9dNO0ONjn7wtkNqM-3" value="&lt;br&gt;ON_PRE" style="rounded=0;whiteSpace=wrap;html=1;" vertex="1" parent="WIyWlLk6GJQsqaUBKTNV-1">
          <mxGeometry x="290" y="140" width="120" height="60" as="geometry" />
        </mxCell>
        <mxCell id="Xrtr9dNO0ONjn7wtkNqM-8" value="" style="edgeStyle=orthogonalEdgeStyle;rounded=0;orthogonalLoop=1;jettySize=auto;html=1;" edge="1" parent="WIyWlLk6GJQsqaUBKTNV-1" source="Xrtr9dNO0ONjn7wtkNqM-5" target="Xrtr9dNO0ONjn7wtkNqM-7">
          <mxGeometry relative="1" as="geometry">
            <Array as="points">
              <mxPoint x="550" y="270" />
            </Array>
          </mxGeometry>
        </mxCell>
        <mxCell id="Xrtr9dNO0ONjn7wtkNqM-10" value="" style="edgeStyle=orthogonalEdgeStyle;rounded=0;orthogonalLoop=1;jettySize=auto;html=1;" edge="1" parent="WIyWlLk6GJQsqaUBKTNV-1" source="Xrtr9dNO0ONjn7wtkNqM-5" target="Xrtr9dNO0ONjn7wtkNqM-9">
          <mxGeometry relative="1" as="geometry" />
        </mxCell>
        <mxCell id="Xrtr9dNO0ONjn7wtkNqM-5" value="DENDRITE_&lt;br&gt;COMPUTE" style="rounded=0;whiteSpace=wrap;html=1;" vertex="1" parent="WIyWlLk6GJQsqaUBKTNV-1">
          <mxGeometry x="490" y="140" width="120" height="60" as="geometry" />
        </mxCell>
        <mxCell id="Xrtr9dNO0ONjn7wtkNqM-7" value="&lt;br&gt;ON_POST" style="rounded=0;whiteSpace=wrap;html=1;" vertex="1" parent="WIyWlLk6GJQsqaUBKTNV-1">
          <mxGeometry x="290" y="240" width="120" height="60" as="geometry" />
        </mxCell>
        <mxCell id="Xrtr9dNO0ONjn7wtkNqM-9" value="OUT" style="rounded=0;whiteSpace=wrap;html=1;" vertex="1" parent="WIyWlLk6GJQsqaUBKTNV-1">
          <mxGeometry x="690" y="140" width="120" height="60" as="geometry" />
        </mxCell>
        <mxCell id="Xrtr9dNO0ONjn7wtkNqM-11" value="STDP_LEARNING" style="text;html=1;strokeColor=none;fillColor=none;align=center;verticalAlign=middle;whiteSpace=wrap;rounded=0;fontSize=9;fontColor=#0000FF;" vertex="1" parent="WIyWlLk6GJQsqaUBKTNV-1">
          <mxGeometry x="320" y="140" width="60" height="30" as="geometry" />
        </mxCell>
        <mxCell id="Xrtr9dNO0ONjn7wtkNqM-12" value="STDP_LEARNING" style="text;html=1;strokeColor=none;fillColor=none;align=center;verticalAlign=middle;whiteSpace=wrap;rounded=0;fontSize=9;fontColor=#0000FF;" vertex="1" parent="WIyWlLk6GJQsqaUBKTNV-1">
          <mxGeometry x="320" y="240" width="60" height="30" as="geometry" />
        </mxCell>
        <mxCell id="Xrtr9dNO0ONjn7wtkNqM-13" value="" style="endArrow=none;dashed=1;html=1;dashPattern=1 3;strokeWidth=2;rounded=0;" edge="1" parent="WIyWlLk6GJQsqaUBKTNV-1">
          <mxGeometry width="50" height="50" relative="1" as="geometry">
            <mxPoint x="380" y="140" as="sourcePoint" />
            <mxPoint x="430" y="90" as="targetPoint" />
          </mxGeometry>
        </mxCell>
        <mxCell id="Xrtr9dNO0ONjn7wtkNqM-14" value="" style="endArrow=none;dashed=1;html=1;dashPattern=1 3;strokeWidth=2;rounded=0;" edge="1" parent="WIyWlLk6GJQsqaUBKTNV-1">
          <mxGeometry width="50" height="50" relative="1" as="geometry">
            <mxPoint x="310" y="140" as="sourcePoint" />
            <mxPoint x="270" y="90" as="targetPoint" />
          </mxGeometry>
        </mxCell>
        <mxCell id="Xrtr9dNO0ONjn7wtkNqM-66" value="" style="endArrow=none;dashed=1;html=1;dashPattern=1 3;strokeWidth=2;rounded=0;" edge="1" parent="WIyWlLk6GJQsqaUBKTNV-1">
          <mxGeometry width="50" height="50" relative="1" as="geometry">
            <mxPoint x="270" y="350" as="sourcePoint" />
            <mxPoint x="320" y="300" as="targetPoint" />
          </mxGeometry>
        </mxCell>
        <mxCell id="Xrtr9dNO0ONjn7wtkNqM-67" value="" style="endArrow=none;dashed=1;html=1;dashPattern=1 3;strokeWidth=2;rounded=0;" edge="1" parent="WIyWlLk6GJQsqaUBKTNV-1">
          <mxGeometry width="50" height="50" relative="1" as="geometry">
            <mxPoint x="420" y="360.8888753255208" as="sourcePoint" />
            <mxPoint x="380" y="300" as="targetPoint" />
          </mxGeometry>
        </mxCell>
        <mxCell id="Xrtr9dNO0ONjn7wtkNqM-68" value="&amp;nbsp;XeAe(find(inp_image==1),:) = XeAe(find(inp_image==1),:)-learn_rate_pre*post" style="text;html=1;strokeColor=none;fillColor=none;align=center;verticalAlign=middle;whiteSpace=wrap;rounded=0;" vertex="1" parent="WIyWlLk6GJQsqaUBKTNV-1">
          <mxGeometry x="220" y="-70" width="300" height="30" as="geometry" />
        </mxCell>
        <mxCell id="Xrtr9dNO0ONjn7wtkNqM-71" value="" style="shape=table;startSize=0;container=1;collapsible=0;childLayout=tableLayout;movable=1;resizable=1;rotatable=1;deletable=1;editable=1;locked=0;connectable=1;" vertex="1" parent="WIyWlLk6GJQsqaUBKTNV-1">
          <mxGeometry x="430" y="23" width="70" height="10" as="geometry" />
        </mxCell>
        <mxCell id="Xrtr9dNO0ONjn7wtkNqM-72" value="" style="shape=tableRow;horizontal=0;startSize=0;swimlaneHead=0;swimlaneBody=0;strokeColor=inherit;top=0;left=0;bottom=0;right=0;collapsible=0;dropTarget=0;fillColor=none;points=[[0,0.5],[1,0.5]];portConstraint=eastwest;movable=1;resizable=1;rotatable=1;deletable=1;editable=1;locked=0;connectable=1;" vertex="1" parent="Xrtr9dNO0ONjn7wtkNqM-71">
          <mxGeometry width="70" height="10" as="geometry" />
        </mxCell>
        <mxCell id="Xrtr9dNO0ONjn7wtkNqM-73" value="" style="shape=partialRectangle;html=1;whiteSpace=wrap;connectable=1;strokeColor=inherit;overflow=hidden;fillColor=none;top=0;left=0;bottom=0;right=0;pointerEvents=1;movable=1;resizable=1;rotatable=1;deletable=1;editable=1;locked=0;" vertex="1" parent="Xrtr9dNO0ONjn7wtkNqM-72">
          <mxGeometry width="12" height="10" as="geometry">
            <mxRectangle width="12" height="10" as="alternateBounds" />
          </mxGeometry>
        </mxCell>
        <mxCell id="Xrtr9dNO0ONjn7wtkNqM-74" value="" style="shape=partialRectangle;html=1;whiteSpace=wrap;connectable=1;strokeColor=inherit;overflow=hidden;fillColor=none;top=0;left=0;bottom=0;right=0;pointerEvents=1;movable=1;resizable=1;rotatable=1;deletable=1;editable=1;locked=0;" vertex="1" parent="Xrtr9dNO0ONjn7wtkNqM-72">
          <mxGeometry x="12" width="11" height="10" as="geometry">
            <mxRectangle width="11" height="10" as="alternateBounds" />
          </mxGeometry>
        </mxCell>
        <mxCell id="Xrtr9dNO0ONjn7wtkNqM-75" value="" style="shape=partialRectangle;html=1;whiteSpace=wrap;connectable=1;strokeColor=inherit;overflow=hidden;fillColor=none;top=0;left=0;bottom=0;right=0;pointerEvents=1;movable=1;resizable=1;rotatable=1;deletable=1;editable=1;locked=0;" vertex="1" parent="Xrtr9dNO0ONjn7wtkNqM-72">
          <mxGeometry x="23" width="12" height="10" as="geometry">
            <mxRectangle width="12" height="10" as="alternateBounds" />
          </mxGeometry>
        </mxCell>
        <mxCell id="Xrtr9dNO0ONjn7wtkNqM-76" value="" style="shape=partialRectangle;html=1;whiteSpace=wrap;connectable=1;strokeColor=inherit;overflow=hidden;fillColor=none;top=0;left=0;bottom=0;right=0;pointerEvents=1;movable=1;resizable=1;rotatable=1;deletable=1;editable=1;locked=0;" vertex="1" parent="Xrtr9dNO0ONjn7wtkNqM-72">
          <mxGeometry x="35" width="12" height="10" as="geometry">
            <mxRectangle width="12" height="10" as="alternateBounds" />
          </mxGeometry>
        </mxCell>
        <mxCell id="Xrtr9dNO0ONjn7wtkNqM-77" value="" style="shape=partialRectangle;html=1;whiteSpace=wrap;connectable=1;strokeColor=inherit;overflow=hidden;fillColor=none;top=0;left=0;bottom=0;right=0;pointerEvents=1;movable=1;resizable=1;rotatable=1;deletable=1;editable=1;locked=0;" vertex="1" parent="Xrtr9dNO0ONjn7wtkNqM-72">
          <mxGeometry x="47" width="11" height="10" as="geometry">
            <mxRectangle width="11" height="10" as="alternateBounds" />
          </mxGeometry>
        </mxCell>
        <mxCell id="Xrtr9dNO0ONjn7wtkNqM-78" value="" style="shape=partialRectangle;html=1;whiteSpace=wrap;connectable=1;strokeColor=inherit;overflow=hidden;fillColor=none;top=0;left=0;bottom=0;right=0;pointerEvents=1;movable=1;resizable=1;rotatable=1;deletable=1;editable=1;locked=0;" vertex="1" parent="Xrtr9dNO0ONjn7wtkNqM-72">
          <mxGeometry x="58" width="12" height="10" as="geometry">
            <mxRectangle width="12" height="10" as="alternateBounds" />
          </mxGeometry>
        </mxCell>
        <mxCell id="Xrtr9dNO0ONjn7wtkNqM-89" value="" style="shape=table;startSize=0;container=1;collapsible=0;childLayout=tableLayout;" vertex="1" parent="WIyWlLk6GJQsqaUBKTNV-1">
          <mxGeometry x="290" y="-5" width="100" height="80" as="geometry" />
        </mxCell>
        <mxCell id="Xrtr9dNO0ONjn7wtkNqM-90" value="" style="shape=tableRow;horizontal=0;startSize=0;swimlaneHead=0;swimlaneBody=0;strokeColor=inherit;top=0;left=0;bottom=0;right=0;collapsible=0;dropTarget=0;fillColor=none;points=[[0,0.5],[1,0.5]];portConstraint=eastwest;" vertex="1" parent="Xrtr9dNO0ONjn7wtkNqM-89">
          <mxGeometry width="100" height="14" as="geometry" />
        </mxCell>
        <mxCell id="Xrtr9dNO0ONjn7wtkNqM-91" value="" style="shape=partialRectangle;html=1;whiteSpace=wrap;connectable=0;strokeColor=inherit;overflow=hidden;fillColor=none;top=0;left=0;bottom=0;right=0;pointerEvents=1;" vertex="1" parent="Xrtr9dNO0ONjn7wtkNqM-90">
          <mxGeometry width="17" height="14" as="geometry">
            <mxRectangle width="17" height="14" as="alternateBounds" />
          </mxGeometry>
        </mxCell>
        <mxCell id="Xrtr9dNO0ONjn7wtkNqM-92" value="" style="shape=partialRectangle;html=1;whiteSpace=wrap;connectable=0;strokeColor=inherit;overflow=hidden;fillColor=none;top=0;left=0;bottom=0;right=0;pointerEvents=1;" vertex="1" parent="Xrtr9dNO0ONjn7wtkNqM-90">
          <mxGeometry x="17" width="16" height="14" as="geometry">
            <mxRectangle width="16" height="14" as="alternateBounds" />
          </mxGeometry>
        </mxCell>
        <mxCell id="Xrtr9dNO0ONjn7wtkNqM-93" value="" style="shape=partialRectangle;html=1;whiteSpace=wrap;connectable=0;strokeColor=inherit;overflow=hidden;fillColor=none;top=0;left=0;bottom=0;right=0;pointerEvents=1;" vertex="1" parent="Xrtr9dNO0ONjn7wtkNqM-90">
          <mxGeometry x="33" width="17" height="14" as="geometry">
            <mxRectangle width="17" height="14" as="alternateBounds" />
          </mxGeometry>
        </mxCell>
        <mxCell id="Xrtr9dNO0ONjn7wtkNqM-94" value="" style="shape=partialRectangle;html=1;whiteSpace=wrap;connectable=0;strokeColor=inherit;overflow=hidden;fillColor=none;top=0;left=0;bottom=0;right=0;pointerEvents=1;" vertex="1" parent="Xrtr9dNO0ONjn7wtkNqM-90">
          <mxGeometry x="50" width="17" height="14" as="geometry">
            <mxRectangle width="17" height="14" as="alternateBounds" />
          </mxGeometry>
        </mxCell>
        <mxCell id="Xrtr9dNO0ONjn7wtkNqM-95" value="" style="shape=partialRectangle;html=1;whiteSpace=wrap;connectable=0;strokeColor=inherit;overflow=hidden;fillColor=none;top=0;left=0;bottom=0;right=0;pointerEvents=1;" vertex="1" parent="Xrtr9dNO0ONjn7wtkNqM-90">
          <mxGeometry x="67" width="16" height="14" as="geometry">
            <mxRectangle width="16" height="14" as="alternateBounds" />
          </mxGeometry>
        </mxCell>
        <mxCell id="Xrtr9dNO0ONjn7wtkNqM-96" value="" style="shape=partialRectangle;html=1;whiteSpace=wrap;connectable=0;strokeColor=inherit;overflow=hidden;fillColor=none;top=0;left=0;bottom=0;right=0;pointerEvents=1;" vertex="1" parent="Xrtr9dNO0ONjn7wtkNqM-90">
          <mxGeometry x="83" width="17" height="14" as="geometry">
            <mxRectangle width="17" height="14" as="alternateBounds" />
          </mxGeometry>
        </mxCell>
        <mxCell id="Xrtr9dNO0ONjn7wtkNqM-97" value="" style="shape=tableRow;horizontal=0;startSize=0;swimlaneHead=0;swimlaneBody=0;strokeColor=inherit;top=0;left=0;bottom=0;right=0;collapsible=0;dropTarget=0;fillColor=none;points=[[0,0.5],[1,0.5]];portConstraint=eastwest;" vertex="1" parent="Xrtr9dNO0ONjn7wtkNqM-89">
          <mxGeometry y="14" width="100" height="12" as="geometry" />
        </mxCell>
        <mxCell id="Xrtr9dNO0ONjn7wtkNqM-98" value="" style="shape=partialRectangle;html=1;whiteSpace=wrap;connectable=0;strokeColor=inherit;overflow=hidden;fillColor=none;top=0;left=0;bottom=0;right=0;pointerEvents=1;" vertex="1" parent="Xrtr9dNO0ONjn7wtkNqM-97">
          <mxGeometry width="17" height="12" as="geometry">
            <mxRectangle width="17" height="12" as="alternateBounds" />
          </mxGeometry>
        </mxCell>
        <mxCell id="Xrtr9dNO0ONjn7wtkNqM-99" value="" style="shape=partialRectangle;html=1;whiteSpace=wrap;connectable=0;strokeColor=inherit;overflow=hidden;fillColor=none;top=0;left=0;bottom=0;right=0;pointerEvents=1;" vertex="1" parent="Xrtr9dNO0ONjn7wtkNqM-97">
          <mxGeometry x="17" width="16" height="12" as="geometry">
            <mxRectangle width="16" height="12" as="alternateBounds" />
          </mxGeometry>
        </mxCell>
        <mxCell id="Xrtr9dNO0ONjn7wtkNqM-100" value="" style="shape=partialRectangle;html=1;whiteSpace=wrap;connectable=0;strokeColor=inherit;overflow=hidden;fillColor=none;top=0;left=0;bottom=0;right=0;pointerEvents=1;" vertex="1" parent="Xrtr9dNO0ONjn7wtkNqM-97">
          <mxGeometry x="33" width="17" height="12" as="geometry">
            <mxRectangle width="17" height="12" as="alternateBounds" />
          </mxGeometry>
        </mxCell>
        <mxCell id="Xrtr9dNO0ONjn7wtkNqM-101" value="" style="shape=partialRectangle;html=1;whiteSpace=wrap;connectable=0;strokeColor=inherit;overflow=hidden;fillColor=none;top=0;left=0;bottom=0;right=0;pointerEvents=1;" vertex="1" parent="Xrtr9dNO0ONjn7wtkNqM-97">
          <mxGeometry x="50" width="17" height="12" as="geometry">
            <mxRectangle width="17" height="12" as="alternateBounds" />
          </mxGeometry>
        </mxCell>
        <mxCell id="Xrtr9dNO0ONjn7wtkNqM-102" value="" style="shape=partialRectangle;html=1;whiteSpace=wrap;connectable=0;strokeColor=inherit;overflow=hidden;fillColor=none;top=0;left=0;bottom=0;right=0;pointerEvents=1;" vertex="1" parent="Xrtr9dNO0ONjn7wtkNqM-97">
          <mxGeometry x="67" width="16" height="12" as="geometry">
            <mxRectangle width="16" height="12" as="alternateBounds" />
          </mxGeometry>
        </mxCell>
        <mxCell id="Xrtr9dNO0ONjn7wtkNqM-103" value="" style="shape=partialRectangle;html=1;whiteSpace=wrap;connectable=0;strokeColor=inherit;overflow=hidden;fillColor=none;top=0;left=0;bottom=0;right=0;pointerEvents=1;" vertex="1" parent="Xrtr9dNO0ONjn7wtkNqM-97">
          <mxGeometry x="83" width="17" height="12" as="geometry">
            <mxRectangle width="17" height="12" as="alternateBounds" />
          </mxGeometry>
        </mxCell>
        <mxCell id="Xrtr9dNO0ONjn7wtkNqM-104" value="" style="shape=tableRow;horizontal=0;startSize=0;swimlaneHead=0;swimlaneBody=0;strokeColor=inherit;top=0;left=0;bottom=0;right=0;collapsible=0;dropTarget=0;fillColor=none;points=[[0,0.5],[1,0.5]];portConstraint=eastwest;" vertex="1" parent="Xrtr9dNO0ONjn7wtkNqM-89">
          <mxGeometry y="26" width="100" height="14" as="geometry" />
        </mxCell>
        <mxCell id="Xrtr9dNO0ONjn7wtkNqM-105" value="" style="shape=partialRectangle;html=1;whiteSpace=wrap;connectable=0;strokeColor=inherit;overflow=hidden;fillColor=none;top=0;left=0;bottom=0;right=0;pointerEvents=1;" vertex="1" parent="Xrtr9dNO0ONjn7wtkNqM-104">
          <mxGeometry width="17" height="14" as="geometry">
            <mxRectangle width="17" height="14" as="alternateBounds" />
          </mxGeometry>
        </mxCell>
        <mxCell id="Xrtr9dNO0ONjn7wtkNqM-106" value="" style="shape=partialRectangle;html=1;whiteSpace=wrap;connectable=0;strokeColor=inherit;overflow=hidden;fillColor=none;top=0;left=0;bottom=0;right=0;pointerEvents=1;" vertex="1" parent="Xrtr9dNO0ONjn7wtkNqM-104">
          <mxGeometry x="17" width="16" height="14" as="geometry">
            <mxRectangle width="16" height="14" as="alternateBounds" />
          </mxGeometry>
        </mxCell>
        <mxCell id="Xrtr9dNO0ONjn7wtkNqM-107" value="" style="shape=partialRectangle;html=1;whiteSpace=wrap;connectable=0;strokeColor=inherit;overflow=hidden;fillColor=none;top=0;left=0;bottom=0;right=0;pointerEvents=1;" vertex="1" parent="Xrtr9dNO0ONjn7wtkNqM-104">
          <mxGeometry x="33" width="17" height="14" as="geometry">
            <mxRectangle width="17" height="14" as="alternateBounds" />
          </mxGeometry>
        </mxCell>
        <mxCell id="Xrtr9dNO0ONjn7wtkNqM-108" value="" style="shape=partialRectangle;html=1;whiteSpace=wrap;connectable=0;strokeColor=inherit;overflow=hidden;fillColor=none;top=0;left=0;bottom=0;right=0;pointerEvents=1;" vertex="1" parent="Xrtr9dNO0ONjn7wtkNqM-104">
          <mxGeometry x="50" width="17" height="14" as="geometry">
            <mxRectangle width="17" height="14" as="alternateBounds" />
          </mxGeometry>
        </mxCell>
        <mxCell id="Xrtr9dNO0ONjn7wtkNqM-109" value="" style="shape=partialRectangle;html=1;whiteSpace=wrap;connectable=0;strokeColor=inherit;overflow=hidden;fillColor=none;top=0;left=0;bottom=0;right=0;pointerEvents=1;" vertex="1" parent="Xrtr9dNO0ONjn7wtkNqM-104">
          <mxGeometry x="67" width="16" height="14" as="geometry">
            <mxRectangle width="16" height="14" as="alternateBounds" />
          </mxGeometry>
        </mxCell>
        <mxCell id="Xrtr9dNO0ONjn7wtkNqM-110" value="" style="shape=partialRectangle;html=1;whiteSpace=wrap;connectable=0;strokeColor=inherit;overflow=hidden;fillColor=none;top=0;left=0;bottom=0;right=0;pointerEvents=1;" vertex="1" parent="Xrtr9dNO0ONjn7wtkNqM-104">
          <mxGeometry x="83" width="17" height="14" as="geometry">
            <mxRectangle width="17" height="14" as="alternateBounds" />
          </mxGeometry>
        </mxCell>
        <mxCell id="Xrtr9dNO0ONjn7wtkNqM-111" value="" style="shape=tableRow;horizontal=0;startSize=0;swimlaneHead=0;swimlaneBody=0;strokeColor=inherit;top=0;left=0;bottom=0;right=0;collapsible=0;dropTarget=0;fillColor=none;points=[[0,0.5],[1,0.5]];portConstraint=eastwest;" vertex="1" parent="Xrtr9dNO0ONjn7wtkNqM-89">
          <mxGeometry y="40" width="100" height="14" as="geometry" />
        </mxCell>
        <mxCell id="Xrtr9dNO0ONjn7wtkNqM-112" value="" style="shape=partialRectangle;html=1;whiteSpace=wrap;connectable=0;strokeColor=inherit;overflow=hidden;fillColor=none;top=0;left=0;bottom=0;right=0;pointerEvents=1;" vertex="1" parent="Xrtr9dNO0ONjn7wtkNqM-111">
          <mxGeometry width="17" height="14" as="geometry">
            <mxRectangle width="17" height="14" as="alternateBounds" />
          </mxGeometry>
        </mxCell>
        <mxCell id="Xrtr9dNO0ONjn7wtkNqM-113" value="" style="shape=partialRectangle;html=1;whiteSpace=wrap;connectable=0;strokeColor=inherit;overflow=hidden;fillColor=none;top=0;left=0;bottom=0;right=0;pointerEvents=1;" vertex="1" parent="Xrtr9dNO0ONjn7wtkNqM-111">
          <mxGeometry x="17" width="16" height="14" as="geometry">
            <mxRectangle width="16" height="14" as="alternateBounds" />
          </mxGeometry>
        </mxCell>
        <mxCell id="Xrtr9dNO0ONjn7wtkNqM-114" value="" style="shape=partialRectangle;html=1;whiteSpace=wrap;connectable=0;strokeColor=inherit;overflow=hidden;fillColor=none;top=0;left=0;bottom=0;right=0;pointerEvents=1;" vertex="1" parent="Xrtr9dNO0ONjn7wtkNqM-111">
          <mxGeometry x="33" width="17" height="14" as="geometry">
            <mxRectangle width="17" height="14" as="alternateBounds" />
          </mxGeometry>
        </mxCell>
        <mxCell id="Xrtr9dNO0ONjn7wtkNqM-115" value="" style="shape=partialRectangle;html=1;whiteSpace=wrap;connectable=0;strokeColor=inherit;overflow=hidden;fillColor=none;top=0;left=0;bottom=0;right=0;pointerEvents=1;" vertex="1" parent="Xrtr9dNO0ONjn7wtkNqM-111">
          <mxGeometry x="50" width="17" height="14" as="geometry">
            <mxRectangle width="17" height="14" as="alternateBounds" />
          </mxGeometry>
        </mxCell>
        <mxCell id="Xrtr9dNO0ONjn7wtkNqM-116" value="" style="shape=partialRectangle;html=1;whiteSpace=wrap;connectable=0;strokeColor=inherit;overflow=hidden;fillColor=none;top=0;left=0;bottom=0;right=0;pointerEvents=1;" vertex="1" parent="Xrtr9dNO0ONjn7wtkNqM-111">
          <mxGeometry x="67" width="16" height="14" as="geometry">
            <mxRectangle width="16" height="14" as="alternateBounds" />
          </mxGeometry>
        </mxCell>
        <mxCell id="Xrtr9dNO0ONjn7wtkNqM-117" value="" style="shape=partialRectangle;html=1;whiteSpace=wrap;connectable=0;strokeColor=inherit;overflow=hidden;fillColor=none;top=0;left=0;bottom=0;right=0;pointerEvents=1;" vertex="1" parent="Xrtr9dNO0ONjn7wtkNqM-111">
          <mxGeometry x="83" width="17" height="14" as="geometry">
            <mxRectangle width="17" height="14" as="alternateBounds" />
          </mxGeometry>
        </mxCell>
        <mxCell id="Xrtr9dNO0ONjn7wtkNqM-118" value="" style="shape=tableRow;horizontal=0;startSize=0;swimlaneHead=0;swimlaneBody=0;strokeColor=inherit;top=0;left=0;bottom=0;right=0;collapsible=0;dropTarget=0;fillColor=none;points=[[0,0.5],[1,0.5]];portConstraint=eastwest;" vertex="1" parent="Xrtr9dNO0ONjn7wtkNqM-89">
          <mxGeometry y="54" width="100" height="12" as="geometry" />
        </mxCell>
        <mxCell id="Xrtr9dNO0ONjn7wtkNqM-119" value="" style="shape=partialRectangle;html=1;whiteSpace=wrap;connectable=0;strokeColor=inherit;overflow=hidden;fillColor=none;top=0;left=0;bottom=0;right=0;pointerEvents=1;" vertex="1" parent="Xrtr9dNO0ONjn7wtkNqM-118">
          <mxGeometry width="17" height="12" as="geometry">
            <mxRectangle width="17" height="12" as="alternateBounds" />
          </mxGeometry>
        </mxCell>
        <mxCell id="Xrtr9dNO0ONjn7wtkNqM-120" value="" style="shape=partialRectangle;html=1;whiteSpace=wrap;connectable=0;strokeColor=inherit;overflow=hidden;fillColor=none;top=0;left=0;bottom=0;right=0;pointerEvents=1;" vertex="1" parent="Xrtr9dNO0ONjn7wtkNqM-118">
          <mxGeometry x="17" width="16" height="12" as="geometry">
            <mxRectangle width="16" height="12" as="alternateBounds" />
          </mxGeometry>
        </mxCell>
        <mxCell id="Xrtr9dNO0ONjn7wtkNqM-121" value="" style="shape=partialRectangle;html=1;whiteSpace=wrap;connectable=0;strokeColor=inherit;overflow=hidden;fillColor=none;top=0;left=0;bottom=0;right=0;pointerEvents=1;" vertex="1" parent="Xrtr9dNO0ONjn7wtkNqM-118">
          <mxGeometry x="33" width="17" height="12" as="geometry">
            <mxRectangle width="17" height="12" as="alternateBounds" />
          </mxGeometry>
        </mxCell>
        <mxCell id="Xrtr9dNO0ONjn7wtkNqM-122" value="" style="shape=partialRectangle;html=1;whiteSpace=wrap;connectable=0;strokeColor=inherit;overflow=hidden;fillColor=none;top=0;left=0;bottom=0;right=0;pointerEvents=1;" vertex="1" parent="Xrtr9dNO0ONjn7wtkNqM-118">
          <mxGeometry x="50" width="17" height="12" as="geometry">
            <mxRectangle width="17" height="12" as="alternateBounds" />
          </mxGeometry>
        </mxCell>
        <mxCell id="Xrtr9dNO0ONjn7wtkNqM-123" value="" style="shape=partialRectangle;html=1;whiteSpace=wrap;connectable=0;strokeColor=inherit;overflow=hidden;fillColor=none;top=0;left=0;bottom=0;right=0;pointerEvents=1;" vertex="1" parent="Xrtr9dNO0ONjn7wtkNqM-118">
          <mxGeometry x="67" width="16" height="12" as="geometry">
            <mxRectangle width="16" height="12" as="alternateBounds" />
          </mxGeometry>
        </mxCell>
        <mxCell id="Xrtr9dNO0ONjn7wtkNqM-124" value="" style="shape=partialRectangle;html=1;whiteSpace=wrap;connectable=0;strokeColor=inherit;overflow=hidden;fillColor=none;top=0;left=0;bottom=0;right=0;pointerEvents=1;" vertex="1" parent="Xrtr9dNO0ONjn7wtkNqM-118">
          <mxGeometry x="83" width="17" height="12" as="geometry">
            <mxRectangle width="17" height="12" as="alternateBounds" />
          </mxGeometry>
        </mxCell>
        <mxCell id="Xrtr9dNO0ONjn7wtkNqM-125" value="" style="shape=tableRow;horizontal=0;startSize=0;swimlaneHead=0;swimlaneBody=0;strokeColor=inherit;top=0;left=0;bottom=0;right=0;collapsible=0;dropTarget=0;fillColor=none;points=[[0,0.5],[1,0.5]];portConstraint=eastwest;" vertex="1" parent="Xrtr9dNO0ONjn7wtkNqM-89">
          <mxGeometry y="66" width="100" height="14" as="geometry" />
        </mxCell>
        <mxCell id="Xrtr9dNO0ONjn7wtkNqM-126" value="" style="shape=partialRectangle;html=1;whiteSpace=wrap;connectable=0;strokeColor=inherit;overflow=hidden;fillColor=none;top=0;left=0;bottom=0;right=0;pointerEvents=1;" vertex="1" parent="Xrtr9dNO0ONjn7wtkNqM-125">
          <mxGeometry width="17" height="14" as="geometry">
            <mxRectangle width="17" height="14" as="alternateBounds" />
          </mxGeometry>
        </mxCell>
        <mxCell id="Xrtr9dNO0ONjn7wtkNqM-127" value="" style="shape=partialRectangle;html=1;whiteSpace=wrap;connectable=0;strokeColor=inherit;overflow=hidden;fillColor=none;top=0;left=0;bottom=0;right=0;pointerEvents=1;" vertex="1" parent="Xrtr9dNO0ONjn7wtkNqM-125">
          <mxGeometry x="17" width="16" height="14" as="geometry">
            <mxRectangle width="16" height="14" as="alternateBounds" />
          </mxGeometry>
        </mxCell>
        <mxCell id="Xrtr9dNO0ONjn7wtkNqM-128" value="" style="shape=partialRectangle;html=1;whiteSpace=wrap;connectable=0;strokeColor=inherit;overflow=hidden;fillColor=none;top=0;left=0;bottom=0;right=0;pointerEvents=1;" vertex="1" parent="Xrtr9dNO0ONjn7wtkNqM-125">
          <mxGeometry x="33" width="17" height="14" as="geometry">
            <mxRectangle width="17" height="14" as="alternateBounds" />
          </mxGeometry>
        </mxCell>
        <mxCell id="Xrtr9dNO0ONjn7wtkNqM-129" value="" style="shape=partialRectangle;html=1;whiteSpace=wrap;connectable=0;strokeColor=inherit;overflow=hidden;fillColor=none;top=0;left=0;bottom=0;right=0;pointerEvents=1;" vertex="1" parent="Xrtr9dNO0ONjn7wtkNqM-125">
          <mxGeometry x="50" width="17" height="14" as="geometry">
            <mxRectangle width="17" height="14" as="alternateBounds" />
          </mxGeometry>
        </mxCell>
        <mxCell id="Xrtr9dNO0ONjn7wtkNqM-130" value="" style="shape=partialRectangle;html=1;whiteSpace=wrap;connectable=0;strokeColor=inherit;overflow=hidden;fillColor=none;top=0;left=0;bottom=0;right=0;pointerEvents=1;" vertex="1" parent="Xrtr9dNO0ONjn7wtkNqM-125">
          <mxGeometry x="67" width="16" height="14" as="geometry">
            <mxRectangle width="16" height="14" as="alternateBounds" />
          </mxGeometry>
        </mxCell>
        <mxCell id="Xrtr9dNO0ONjn7wtkNqM-131" value="" style="shape=partialRectangle;html=1;whiteSpace=wrap;connectable=0;strokeColor=inherit;overflow=hidden;fillColor=none;top=0;left=0;bottom=0;right=0;pointerEvents=1;" vertex="1" parent="Xrtr9dNO0ONjn7wtkNqM-125">
          <mxGeometry x="83" width="17" height="14" as="geometry">
            <mxRectangle width="17" height="14" as="alternateBounds" />
          </mxGeometry>
        </mxCell>
        <mxCell id="Xrtr9dNO0ONjn7wtkNqM-132" value="weight" style="text;html=1;align=center;verticalAlign=middle;resizable=0;points=[];autosize=1;strokeColor=none;fillColor=none;" vertex="1" parent="WIyWlLk6GJQsqaUBKTNV-1">
          <mxGeometry x="310" y="-35" width="60" height="30" as="geometry" />
        </mxCell>
        <mxCell id="Xrtr9dNO0ONjn7wtkNqM-70" value="" style="rounded=0;whiteSpace=wrap;html=1;dashed=1;fillColor=none;strokeColor=#FF3333;" vertex="1" parent="WIyWlLk6GJQsqaUBKTNV-1">
          <mxGeometry x="280" y="18" width="120" height="20" as="geometry" />
        </mxCell>
        <mxCell id="Xrtr9dNO0ONjn7wtkNqM-144" value="" style="shape=table;startSize=0;container=1;collapsible=0;childLayout=tableLayout;" vertex="1" parent="WIyWlLk6GJQsqaUBKTNV-1">
          <mxGeometry x="238" y="-10" width="12" height="90" as="geometry" />
        </mxCell>
        <mxCell id="Xrtr9dNO0ONjn7wtkNqM-145" value="" style="shape=tableRow;horizontal=0;startSize=0;swimlaneHead=0;swimlaneBody=0;strokeColor=inherit;top=0;left=0;bottom=0;right=0;collapsible=0;dropTarget=0;fillColor=none;points=[[0,0.5],[1,0.5]];portConstraint=eastwest;" vertex="1" parent="Xrtr9dNO0ONjn7wtkNqM-144">
          <mxGeometry width="12" height="14" as="geometry" />
        </mxCell>
        <mxCell id="Xrtr9dNO0ONjn7wtkNqM-146" value="" style="shape=partialRectangle;html=1;whiteSpace=wrap;connectable=0;strokeColor=inherit;overflow=hidden;fillColor=none;top=0;left=0;bottom=0;right=0;pointerEvents=1;" vertex="1" parent="Xrtr9dNO0ONjn7wtkNqM-145">
          <mxGeometry width="12" height="14" as="geometry">
            <mxRectangle width="12" height="14" as="alternateBounds" />
          </mxGeometry>
        </mxCell>
        <mxCell id="Xrtr9dNO0ONjn7wtkNqM-147" value="" style="shape=tableRow;horizontal=0;startSize=0;swimlaneHead=0;swimlaneBody=0;strokeColor=inherit;top=0;left=0;bottom=0;right=0;collapsible=0;dropTarget=0;fillColor=none;points=[[0,0.5],[1,0.5]];portConstraint=eastwest;" vertex="1" parent="Xrtr9dNO0ONjn7wtkNqM-144">
          <mxGeometry y="14" width="12" height="16" as="geometry" />
        </mxCell>
        <mxCell id="Xrtr9dNO0ONjn7wtkNqM-148" value="" style="shape=partialRectangle;html=1;whiteSpace=wrap;connectable=0;strokeColor=inherit;overflow=hidden;fillColor=none;top=0;left=0;bottom=0;right=0;pointerEvents=1;" vertex="1" parent="Xrtr9dNO0ONjn7wtkNqM-147">
          <mxGeometry width="12" height="16" as="geometry">
            <mxRectangle width="12" height="16" as="alternateBounds" />
          </mxGeometry>
        </mxCell>
        <mxCell id="Xrtr9dNO0ONjn7wtkNqM-149" value="" style="shape=tableRow;horizontal=0;startSize=0;swimlaneHead=0;swimlaneBody=0;strokeColor=inherit;top=0;left=0;bottom=0;right=0;collapsible=0;dropTarget=0;fillColor=none;points=[[0,0.5],[1,0.5]];portConstraint=eastwest;" vertex="1" parent="Xrtr9dNO0ONjn7wtkNqM-144">
          <mxGeometry y="30" width="12" height="16" as="geometry" />
        </mxCell>
        <mxCell id="Xrtr9dNO0ONjn7wtkNqM-150" value="1" style="shape=partialRectangle;html=1;whiteSpace=wrap;connectable=0;strokeColor=inherit;overflow=hidden;fillColor=none;top=0;left=0;bottom=0;right=0;pointerEvents=1;" vertex="1" parent="Xrtr9dNO0ONjn7wtkNqM-149">
          <mxGeometry width="12" height="16" as="geometry">
            <mxRectangle width="12" height="16" as="alternateBounds" />
          </mxGeometry>
        </mxCell>
        <mxCell id="Xrtr9dNO0ONjn7wtkNqM-151" value="" style="shape=tableRow;horizontal=0;startSize=0;swimlaneHead=0;swimlaneBody=0;strokeColor=inherit;top=0;left=0;bottom=0;right=0;collapsible=0;dropTarget=0;fillColor=none;points=[[0,0.5],[1,0.5]];portConstraint=eastwest;" vertex="1" parent="Xrtr9dNO0ONjn7wtkNqM-144">
          <mxGeometry y="46" width="12" height="14" as="geometry" />
        </mxCell>
        <mxCell id="Xrtr9dNO0ONjn7wtkNqM-152" value="" style="shape=partialRectangle;html=1;whiteSpace=wrap;connectable=0;strokeColor=inherit;overflow=hidden;fillColor=none;top=0;left=0;bottom=0;right=0;pointerEvents=1;" vertex="1" parent="Xrtr9dNO0ONjn7wtkNqM-151">
          <mxGeometry width="12" height="14" as="geometry">
            <mxRectangle width="12" height="14" as="alternateBounds" />
          </mxGeometry>
        </mxCell>
        <mxCell id="Xrtr9dNO0ONjn7wtkNqM-153" value="" style="shape=tableRow;horizontal=0;startSize=0;swimlaneHead=0;swimlaneBody=0;strokeColor=inherit;top=0;left=0;bottom=0;right=0;collapsible=0;dropTarget=0;fillColor=none;points=[[0,0.5],[1,0.5]];portConstraint=eastwest;" vertex="1" parent="Xrtr9dNO0ONjn7wtkNqM-144">
          <mxGeometry y="60" width="12" height="16" as="geometry" />
        </mxCell>
        <mxCell id="Xrtr9dNO0ONjn7wtkNqM-154" value="" style="shape=partialRectangle;html=1;whiteSpace=wrap;connectable=0;strokeColor=inherit;overflow=hidden;fillColor=none;top=0;left=0;bottom=0;right=0;pointerEvents=1;" vertex="1" parent="Xrtr9dNO0ONjn7wtkNqM-153">
          <mxGeometry width="12" height="16" as="geometry">
            <mxRectangle width="12" height="16" as="alternateBounds" />
          </mxGeometry>
        </mxCell>
        <mxCell id="Xrtr9dNO0ONjn7wtkNqM-155" value="" style="shape=tableRow;horizontal=0;startSize=0;swimlaneHead=0;swimlaneBody=0;strokeColor=inherit;top=0;left=0;bottom=0;right=0;collapsible=0;dropTarget=0;fillColor=none;points=[[0,0.5],[1,0.5]];portConstraint=eastwest;" vertex="1" parent="Xrtr9dNO0ONjn7wtkNqM-144">
          <mxGeometry y="76" width="12" height="14" as="geometry" />
        </mxCell>
        <mxCell id="Xrtr9dNO0ONjn7wtkNqM-156" value="" style="shape=partialRectangle;html=1;whiteSpace=wrap;connectable=0;strokeColor=inherit;overflow=hidden;fillColor=none;top=0;left=0;bottom=0;right=0;pointerEvents=1;" vertex="1" parent="Xrtr9dNO0ONjn7wtkNqM-155">
          <mxGeometry width="12" height="14" as="geometry">
            <mxRectangle width="12" height="14" as="alternateBounds" />
          </mxGeometry>
        </mxCell>
        <mxCell id="Xrtr9dNO0ONjn7wtkNqM-157" value="" style="endArrow=classic;dashed=1;html=1;dashPattern=1 3;strokeWidth=2;rounded=0;endFill=1;strokeColor=#FF3333;" edge="1" parent="WIyWlLk6GJQsqaUBKTNV-1">
          <mxGeometry width="50" height="50" relative="1" as="geometry">
            <mxPoint x="250" y="27.71" as="sourcePoint" />
            <mxPoint x="280" y="27.71" as="targetPoint" />
          </mxGeometry>
        </mxCell>
        <mxCell id="Xrtr9dNO0ONjn7wtkNqM-158" value="post" style="text;html=1;align=center;verticalAlign=middle;resizable=0;points=[];autosize=1;strokeColor=none;fillColor=none;" vertex="1" parent="WIyWlLk6GJQsqaUBKTNV-1">
          <mxGeometry x="440" y="-9" width="50" height="30" as="geometry" />
        </mxCell>
        <mxCell id="Xrtr9dNO0ONjn7wtkNqM-159" value="-" style="text;html=1;align=center;verticalAlign=middle;resizable=0;points=[];autosize=1;strokeColor=none;fillColor=none;" vertex="1" parent="WIyWlLk6GJQsqaUBKTNV-1">
          <mxGeometry x="400" y="13" width="30" height="30" as="geometry" />
        </mxCell>
      </root>
    </mxGraphModel>
  </diagram>
</mxfile>
